PathFileType	4	(x/y/z)	S10_M20_T58
DataRate	CameraRate	NumFrames	NumMarkers	Units	OrigDataRate	OrigDataStartFrame	OrigNumFrames
240	240	4	51	mm	240	202	538
Frame#	Time	Sternum			R.Acromium			L.Acromium			Top.Head			R.ASIS			L.ASIS			R.PSIS			L.PSIS			R.Great.Tro			L.Great.Tro			R.Iliac.Crest			L.Iliac.Crest			V.Sacral			R.Thigh.Upper.Post			R.Thigh.Lower.Ant			R.Thigh.Lower.Post			R.Thigh.Upper.Ant			R.Knee.Lat			R.Knee.Med			R.Shank.Upper.Post			R.Shank.Lower.Ant			R.Shank.Lower.Post			R.Shank.Upper.Ant			R.Ankle.Lat			R.Ankle.Med			R.Heel.Upper			R.Heel.Med			R.Heel.Lat			R.Toe.Lat			R.Toe.Med			R.Toe.Tip			L.Thigh.Upper.Post			L.Thigh.Lower.Ant			L.Thigh.Lower.Post			L.Thigh.Upper.Ant			L.Knee.Lat			L.Knee.Med			L.Shank.Upper.Post			L.Shank.Lower.Ant			L.Shank.Lower.Post			L.Shank.Upper.Ant			L.Ankle.Lat			L.Ankle.Med			L.Heel.Upper			L.Heel.Med			L.Heel.Lat			L.Toe.Lat			L.Toe.Med			L.Toe.Tip			Cervical.Spine			Back			
		X1	Y1	Z1	X2	Y2	Z2	X3	Y3	Z3	X4	Y4	Z4	X5	Y5	Z5	X6	Y6	Z6	X7	Y7	Z7	X8	Y8	Z8	X9	Y9	Z9	X10	Y10	Z10	X11	Y11	Z11	X12	Y12	Z12	X13	Y13	Z13	X14	Y14	Z14	X15	Y15	Z15	X16	Y16	Z16	X17	Y17	Z17	X18	Y18	Z18	X19	Y19	Z19	X20	Y20	Z20	X21	Y21	Z21	X22	Y22	Z22	X23	Y23	Z23	X24	Y24	Z24	X25	Y25	Z25	X26	Y26	Z26	X27	Y27	Z27	X28	Y28	Z28	X29	Y29	Z29	X30	Y30	Z30	X31	Y31	Z31	X32	Y32	Z32	X33	Y33	Z33	X34	Y34	Z34	X35	Y35	Z35	X36	Y36	Z36	X37	Y37	Z37	X38	Y38	Z38	X39	Y39	Z39	X40	Y40	Z40	X41	Y41	Z41	X42	Y42	Z42	X43	Y43	Z43	X44	Y44	Z44	X45	Y45	Z45	X46	Y46	Z46	X47	Y47	Z47	X48	Y48	Z48	X49	Y49	Z49	X50	Y50	Z50	X51	Y51	Z51	

202	0.8375	315.79	1236.1	331.19	157.36	1372	478.45	213.76	1432.5	185.64	125.02	1703.2	367.36	264.04	974.42	409.28	246.95	969.35	179.81	55.398	992.55	335.35	58.789	994.53	253.15	213.15	910.36	489.37	167.57	903.6	128.19	167.66	1056.5	458.57	187.31	1050.4	158.47	34.081	960.47	300.69	314.01	719.59	476.08	386.83	672.16	422.82	343.91	636.16	463.1	356.02	757.8	430.79	385.58	519.46	414.17	354.79	522.17	292.94	345.05	287.14	424.68	410.55	230.92	396.99	351.34	213.72	418.51	409.69	307.94	402.29	366.74	109.38	394	367.31	120.76	314.87	303.24	64.826	350.55	311.56	37.01	323.89	308.86	41.785	385.91	482.5	41.415	423.75	507.56	45.326	314.15	566.95	63.332	354.73	50.68	651.7	149.57	99.304	552.15	152.17	27.243	560.57	167.95	125.94	637.06	133.53	25.828	473.3	161.13	61.489	447.05	282.54	-166.15	376.6	164.92	-189.26	268.93	166.53	-221.91	323.05	172.03	-132.89	321.08	160.14	-297.4	213.73	177.39	-275.41	209.27	261.12	-342.4	256.13	221.73	-364.01	237.29	258.85	-371.58	237.16	193.36	-320.19	71.99	165.42	-291.99	62.739	272.58	-256.32	33.356	228.72	105.55	1454.6	330.35	27.183	1247.1	284.49
203	0.84167	321.35	1236.9	331.71	162.83	1372.6	478.81	219.27	1433.2	185.97	130.64	1703.9	368.14	269.88	975.21	409.98	252.47	969.92	180.44	61.178	993.11	336.09	64.602	994.96	253.77	219.08	911.1	490.02	173.39	903.74	129.11	173.41	1057.3	459.19	192.79	1050.9	159.01	39.76	960.94	301.44	319.28	719.83	476.58	391.84	672.09	423.27	348.74	636.27	463.53	361.44	757.87	431.32	389.6	519.24	414.53	359.4	522.51	293.18	346.99	287.34	424.64	412.05	230.49	397.06	352.6	213.85	418.41	411.9	307.5	402.4	367.05	109.45	393.81	367.83	120.92	314.75	303.29	64.837	350.52	311.57	37.02	323.89	308.88	41.826	385.91	482.52	41.47	423.74	507.63	45.186	314.05	567.03	63.053	354.68	58.956	650.32	149.96	108.65	551.27	152.12	36.602	558.84	168.05	134.34	636.59	133.63	36	472.05	160.86	72.389	445.16	282.01	-156.33	377.74	164.6	-180.85	270.37	165.98	-212.78	324.89	171.6	-123.77	321.81	159.7	-289.41	216.58	176.69	-267.69	211.83	260.69	-332.81	260.24	220.88	-355.03	242.16	258.14	-362.62	242.16	192.61	-316.24	74.931	165.1	-288.04	64.921	272.31	-254.03	33.01	228.18	111.03	1455.3	330.74	32.761	1247.8	284.92
204	0.84583	326.84	1237.6	332.18	168.3	1373.3	479.17	224.69	1433.8	186.26	136.26	1704.7	368.88	275.68	975.98	410.63	257.9	970.5	181.02	66.908	993.69	336.87	70.313	995.4	254.43	225	911.82	490.67	179.09	903.9	130.04	179.16	1058.1	459.82	198.16	1051.3	159.53	45.373	961.42	302.24	324.4	720.03	477.08	396.71	671.94	423.74	353.4	636.31	463.95	366.75	757.87	431.85	393.43	518.97	414.9	363.68	522.75	293.44	348.8	287.51	424.59	413.47	230.05	397.15	353.77	213.96	418.3	413.99	307.05	402.55	367.34	109.52	393.64	368.36	121.06	314.63	303.34	64.846	350.5	311.59	37.028	323.9	308.9	41.863	385.89	482.54	41.523	423.73	507.69	45.061	313.96	567.11	62.803	354.64	67.254	649	150.34	118.02	550.48	152.06	45.997	557.18	168.13	142.75	636.19	133.72	46.245	470.89	160.57	83.347	443.38	281.5	-146.36	378.88	164.26	-172.25	271.82	165.45	-203.49	326.72	171.16	-114.49	322.56	159.27	-281.24	219.42	176	-259.75	214.39	260.28	-323.05	264.24	220.07	-345.8	246.91	257.48	-353.46	247.05	191.93	-312.04	77.955	164.76	-283.78	67.165	271.99	-251.53	32.781	227.57	116.48	1456	331.13	38.276	1248.4	285.39
205	0.85	332.25	1238.4	332.57	173.75	1373.9	479.52	230.03	1434.5	186.51	141.87	1705.5	369.58	281.43	976.73	411.23	263.25	971.11	181.54	72.583	994.29	337.69	75.925	995.85	255.14	230.88	912.53	491.29	184.68	904.09	130.96	184.91	1058.8	460.44	203.41	1051.7	160.01	50.922	961.92	303.08	329.38	720.18	477.57	401.42	671.71	424.23	357.88	636.3	464.37	371.96	757.81	432.38	397.09	518.67	415.27	367.63	522.9	293.73	350.49	287.66	424.54	414.79	229.61	397.28	354.84	214.06	418.19	415.96	306.6	402.72	367.61	109.57	393.48	368.89	121.19	314.52	303.39	64.856	350.48	311.61	37.037	323.9	308.93	41.895	385.88	482.55	41.571	423.71	507.75	44.948	313.88	567.18	62.576	354.61	75.573	647.75	150.71	127.42	549.79	151.98	55.422	555.61	168.21	151.18	635.88	133.79	56.558	469.81	160.28	94.35	441.74	281.01	-136.27	380.03	163.89	-163.47	273.28	164.93	-194.03	328.54	170.72	-105.06	323.33	158.84	-272.9	222.24	175.34	-251.59	216.93	259.9	-313.12	268.12	219.32	-336.35	251.52	256.9	-344.1	251.81	191.32	-307.56	81.048	164.41	-279.19	69.459	271.62	-248.78	32.689	226.88	121.88	1456.7	331.52	43.731	1249.1	285.91
